<svg xmlns="http://www.w3.org/2000/svg" version="1.1" xmlns:xlink="http://www.w3.org/1999/xlink" xmlns:svgjs="http://svgjs.com/svgjs" width="512" height="512" x="0" y="0" viewBox="0 0 60 60" style="enable-background:new 0 0 512 512" xml:space="preserve" class=""><g><path fill="#ffffff" d="m51.29 12.677-5.7 7.3a1 1 0 0 1-.78.38h-.06l-4.38-.25-12.08 15.37c-.2.25-.49.38-.79.38-.22 0-.43-.07-.62-.21-.43-.35-.51-.97-.17-1.41l12.11-15.4-1.27-4.11c-.1-.31-.04-.65.16-.91l5.7-7.29c.21-.27.54-.41.88-.38.34.03.64.23.79.54l1.81 3.51 3.84.9c.33.07.6.31.71.64.12.32.06.68-.15.94z" data-original="#3b4651"></path><path fill="#ffffff" d="m41.65 22.187-.35-.02-3.62 4.61c1.76 2.22 2.82 5.03 2.82 8.08 0 7.17-5.83 13-13 13s-13-5.83-13-13 5.83-13 13-13c1.95 0 3.8.43 5.46 1.2l3.64-4.63-.09-.29a18.772 18.772 0 0 0-9.01-2.28c-10.48 0-19 8.52-19 19s8.52 19 19 19 19-8.52 19-19c0-4.87-1.84-9.31-4.85-12.67z" data-original="#2b79c2" class=""></path><path fill="#ffffff" d="m36.4 28.397-2.63 3.35c.47.94.73 1.99.73 3.11 0 3.86-3.14 7-7 7s-7-3.14-7-7 3.14-7 7-7c.53 0 1.05.06 1.55.18l2.63-3.36c-1.29-.53-2.7-.82-4.18-.82-6.07 0-11 4.93-11 11s4.93 11 11 11 11-4.93 11-11c0-2.42-.78-4.64-2.1-6.46z" data-original="#2b79c2" class=""></path></g></svg>