<svg xmlns="http://www.w3.org/2000/svg" version="1.1" xmlns:xlink="http://www.w3.org/1999/xlink" xmlns:svgjs="http://svgjs.com/svgjs" width="512" height="512" x="0" y="0" viewBox="0 0 25 24" style="enable-background:new 0 0 512 512" xml:space="preserve"><g><path fill="#000000" fill-rule="evenodd" d="M11.886 3.21a1 1 0 0 1 1.228 0l9 7a1 1 0 0 1-1.228 1.58l-.386-.301V20a2 2 0 0 1-2 2h-12a2 2 0 0 1-2-2v-8.51l-.386.3a1 1 0 0 1-1.228-1.58zM11.5 15a1 1 0 0 0-1 1v4h4v-4a1 1 0 0 0-1-1z" clip-rule="evenodd" data-original="#000000"></path></g></svg>