<svg xmlns="http://www.w3.org/2000/svg" version="1.1" xmlns:xlink="http://www.w3.org/1999/xlink" xmlns:svgjs="http://svgjs.com/svgjs" width="512" height="512" x="0" y="0" viewBox="0 0 490.406 490.406" style="enable-background:new 0 0 512 512" xml:space="preserve"><g><path d="M238.453 64.806c46-4.3 85.3 29.2 90.3 73 .6 5.4 5.2 9.4 10.6 9.4h43.2c6.3 0 11.2-5.4 10.7-11.6-6.1-77.6-72.7-138.5-152.5-135.5-79.7 3-141.6 71-141.6 150.7v47.6h-3.4c-21.5 0-38.9 17.4-38.9 38.9v214.2c0 21.5 17.4 38.9 38.9 38.9h298.9c21.5 0 38.9-17.4 38.9-38.9v-214.2c0-21.5-17.4-38.9-38.9-38.9h-231v-48.8c0-43 31.9-80.8 74.8-84.8zm-25.4 245.2c6.9-15.4 23.8-24.3 39.8-21.1 17.7 3.6 30.1 17.9 30.2 35.6.1 12.2-4.9 22.3-14.8 29.5-3 2.2-3.8 4.4-3.8 7.8.1 15.7.1 31.4.1 47.1.3 6.5-3 12.9-8.8 15.9-13.8 7-27.5-2.8-27.5-15.8v-.1c0-15.8 0-31.5.1-47.3 0-3.2-.7-5.3-3.5-7.4-14.3-10.5-18.9-28.4-11.8-44.2z" fill="#000000" data-original="#000000"></path></g></svg>