<svg xmlns="http://www.w3.org/2000/svg" version="1.1" xmlns:xlink="http://www.w3.org/1999/xlink" xmlns:svgjs="http://svgjs.com/svgjs" width="512" height="512" x="0" y="0" viewBox="0 0 388.438 388" style="enable-background:new 0 0 512 512" xml:space="preserve"><g><path d="M386.102 375.02 294.5 283.418a168.717 168.717 0 0 0 44.102-113.898c0-93.403-76-169.301-169.301-169.301S0 76.219 0 169.519C0 262.919 76 338.82 169.3 338.82a168.717 168.717 0 0 0 113.9-44.101l91.6 91.601a7.84 7.84 0 0 0 5.7 2.297 8.266 8.266 0 0 0 5.7-2.297 8.125 8.125 0 0 0-.098-11.3zM15.898 169.52c0-84.5 68.801-153.301 153.301-153.301s153.301 68.8 153.301 153.3S253.7 322.82 169.2 322.82s-153.302-68.8-153.302-153.3zm0 0" fill="#000000" data-original="#000000"></path></g></svg>